<?xml version="1.0" encoding="UTF-8" standalone="no"?>
<svg
   version="1.1"
   viewBox="0 0 307.65404 307.65404"
   id="svg10"
   sodipodi:docname="holo-coin.svg"
   width="307.65405"
   height="307.65405"
   inkscape:version="1.3 (0e150ed6c4, 2023-07-21)"
   xmlns:inkscape="http://www.inkscape.org/namespaces/inkscape"
   xmlns:sodipodi="http://sodipodi.sourceforge.net/DTD/sodipodi-0.dtd"
   xmlns="http://www.w3.org/2000/svg"
   xmlns:svg="http://www.w3.org/2000/svg"
   xmlns:rdf="http://www.w3.org/1999/02/22-rdf-syntax-ns#"
   xmlns:cc="http://creativecommons.org/ns#"
   xmlns:dc="http://purl.org/dc/elements/1.1/">
  <defs
     id="defs10" />
  <sodipodi:namedview
     id="namedview10"
     pagecolor="#ffffff"
     bordercolor="#000000"
     borderopacity="0.25"
     inkscape:showpageshadow="2"
     inkscape:pageopacity="0.0"
     inkscape:pagecheckerboard="0"
     inkscape:deskcolor="#d1d1d1"
     inkscape:zoom="0.97768335"
     inkscape:cx="-84.894562"
     inkscape:cy="290.99401"
     inkscape:window-width="2560"
     inkscape:window-height="1395"
     inkscape:window-x="1080"
     inkscape:window-y="262"
     inkscape:window-maximized="1"
     inkscape:current-layer="svg10" />
  <metadata
     id="metadata1">
    <rdf:RDF>
      <cc:Work
         rdf:about="">
        <dc:format>image/svg+xml</dc:format>
        <dc:type
           rdf:resource="http://purl.org/dc/dcmitype/StillImage" />
        <dc:title>Hololive logo</dc:title>
      </cc:Work>
    </rdf:RDF>
  </metadata>
  <title
     id="title1">Hololive logo</title>
  <desc
     id="desc1">The main Japanese branch of Hololive Production</desc>
  <circle
     style="fill:#ffcc19;fill-opacity:1;stroke-width:1.33109"
     id="path10"
     cx="153.82703"
     cy="153.82703"
     r="153.82703" />
  <circle
     style="fill:#c38736;fill-opacity:1;stroke-width:1.14"
     id="path10-3"
     cx="153.82703"
     cy="153.82703"
     r="131.74371" />
  <path
     id="path11"
     style="fill:#7f4e2b;fill-opacity:1"
     d="M 153.82652,22.195663 C 81.128838,22.195741 22.195741,81.128838 22.195663,153.82652 22.19574,226.5242 81.128838,285.4573 153.82652,285.45738 226.5242,285.4573 285.4573,226.5242 285.45738,153.82652 285.4573,81.128838 226.5242,22.19574 153.82652,22.195663 Z m 0,9.863219 c 58.816,0 121.76756,52.860324 121.76736,121.767638 2e-4,68.90732 -52.86004,121.76756 -121.76736,121.76736 C 84.919206,275.59408 32.058678,222.73384 32.058882,153.82652 32.058679,84.919207 95.010521,32.058882 153.82652,32.058882 Z"
     sodipodi:nodetypes="cccccccccc" />
  <g
     transform="matrix(1,0,0,0.8712136,80.881096,82.35789)"
     id="g10">
    <g
       transform="translate(0,-574)"
       id="g9">
      <g
         transform="matrix(0.31,0,0,0.31,1799,678)"
         id="g8">
        <g
           transform="translate(-1440,-281)"
           id="g7">
          <path
             d="M -3824,193 V 40 h 59.3 l 0.066,60 c 0.047,42 0.36,59 1.07,57 3.99,-9.8 5.54,-13 9.14,-16 8.07,-7.6 7.49,-7.5 36.9,-7.5 25.3,0 26.2,0.12 33.1,2.3 21.4,7.6 36.9,27 39.9,51 0.496,3.9 0.924,42 0.933,84 l 0.03,77 h -59.3 l -0.564,-160 -3.21,-6.7 c -5.35,-11 -15.6,-18 -27.2,-18 -11.6,0 -21.4,6.6 -27.2,18 l -3.21,6.7 -0.564,160 h -59.3 z m 268,152 c -10.7,-2.9 -17.5,-7.2 -26.2,-16 -9.04,-9.4 -13.6,-17 -15.6,-28 -2.14,-9.2 -2.14,-112 0,-121 2.53,-11 7.58,-20 16.5,-29 8.55,-8.6 15.6,-13 26.2,-16 8.55,-2.3 81.7,-2.3 90.4,0.042 16.5,4.4 33.1,19 39.9,35 4.47,11 4.86,16 4.86,71 0,57 -0.301,61 -6.61,74 -6.8,14 -22.4,27 -37.9,31 -8.36,2.2 -82.6,2.2 -90.4,0 z m 59.3,-32 c 5.83,-3.1 11.7,-9.2 14.6,-16 2.04,-4.5 2.04,-5.6 2.04,-58 v -54 l -2.72,-5.7 c -3.01,-6.2 -8.07,-12 -14.6,-15 -6.03,-3.3 -18.5,-3.3 -25.3,0.073 -5.83,3 -11.7,8.9 -14.6,15 l -2.24,4.7 -0.292,52 c -0.214,37 0.028,54 0.817,56 2.53,9.3 9.72,17 19.4,21 5.74,2.3 17.5,1.4 23.3,-1.8 z m 121,-120 V 40 h 59.3 v 307 h -59.3 z m 148,152 c -19.4,-5.8 -35,-22 -40.8,-43 -1.65,-5.5 -1.75,-10 -1.75,-62 0,-52 0.146,-57 1.75,-62 5.05,-17 16.5,-31 31.1,-38 12.6,-6.1 14.6,-6.3 60.3,-6 38.9,0.34 40.8,0.41 46.7,2.6 16.5,6.3 31.1,21 36,38 l 2.24,6.7 v 119 l -2.24,6.7 c -5.74,17 -19.4,32 -36,38 -5.93,2.3 -6.9,2.3 -48.6,2.5 -37.9,0.21 -42.8,0.051 -48.6,-1.5 z m 57.4,-30 c 7.19,-2.8 14.6,-10 16.5,-17 1.94,-5.4 2.04,-7.3 2.04,-58 0,-50 -0.075,-52 -2.04,-57 -5.44,-15 -23.3,-23 -37.9,-18 -9.72,3.9 -16.5,11 -19.4,22 -1.26,5 -1.46,14 -1.17,56 0.34,55 0.272,55 7.1,63 8.55,10 21.4,14 34,9.1 z m 123,-121 V 41 h 59.3 v 307 h -59.3 z m 104,46 V 133 h 59.3 v 214 h -59.3 z m 104,0.053 v -107 h 59.3 v 184 l 19.4,-0.33 c 17.5,-0.31 19.4,-0.51 23.3,-2.6 5.93,-3 10.7,-8.1 14.6,-14 l 2.62,-5.2 0.535,-162 h 59.3 v 59 c 0,47 -0.282,61 -1.46,67 -6.9,41 -36,74 -75.8,85 -7.19,2.1 -9.72,2.2 -54.4,2.5 l -46.7,0.34 z m 261,105 c -20.4,-5.7 -36.9,-23 -42.8,-44 -1.26,-5.3 -1.46,-14 -1.26,-64 l 0.282,-58 2.72,-7 c 6.61,-17 19.4,-30 36,-37 5.93,-2.2 7.1,-2.3 46.7,-2.6 45.7,-0.39 47.6,-0.16 60.3,6 14.6,7 25.3,21 31.1,38 1.46,4.8 1.75,10 2.14,42 l 0.379,36 h -120 v 18 c 0,22 1.17,27 8.75,34 7.87,8.1 11.7,9 36,9 23.3,0 27.2,-0.92 35,-7.5 4.86,-4.3 9.72,-14 9.72,-20 v -3.8 h 30.1 l -0.651,5.8 c -2.92,26 -20.4,47 -43.7,54 -8.46,2.3 -82.6,2.2 -90.4,-0.023 z m 75.8,-137 c 0.379,-22 -2.04,-31 -10.7,-39 -15.6,-13 -39.9,-6.7 -46.7,12 -1.75,4.8 -2.04,7.8 -2.04,24 v 18 l 60.3,-0.53 z m -440,-123 v -15 h 59.3 v 30 h -59.3 z"
             style="display:none;fill:#34c9fe;stroke-width:0.986"
             id="path1" />
          <g
             transform="matrix(0.9878,0,0,1,-55.04,-3.76)"
             id="g6">
            <path
               transform="translate(1440,281)"
               d="m -5723,101 c -16.12,-5.5 -28.24,-18 -31.35,-33 -0.5448,-2.8 -0.9694,-16 -0.9493,-28 l 0.033,-23 1.813,5.3 c 4.136,12 15.12,23 27.24,27 7.17,2.7 19.23,3.6 25.24,2 4.136,-1 323.5,-151 347.5,-164 13.12,-6.5 19.43,-15.1 23.43,-25.1 1.512,-4.2 2.404,-3.13 2.103,22.1 -0.2323,25 -0.3635,27 -2.524,31 -3.535,7.6 -8.783,14 -15.12,18 -5.658,3.9 -342.5,164 -352.5,167 -6.66,2.4 -19.23,2.4 -26.24,0.072 z"
               style="fill:#f9f9f9;stroke-width:1.001"
               id="path2" />
            <path
               d="m -4284,336 c -14.17,-4.72 -25.22,-14.8 -29.24,-27.6 -2.02,-6.33 -2.02,-9 -2.02,-165 0,-103 0.3637,-160 1.005,-164 2.422,-12.9 11.16,-23.8 23.22,-28.7 5.558,-2.58 8.382,-3.18 15.18,-3.59 4.844,-0.218 10.05,0.127 12.16,0.805 3.738,1.08 343.7,153 355.8,158 15.18,7.68 24.22,25.7 19.2,41.5 -4.542,15.8 -11.16,20.8 -38.39,34.7 -88.84,41.7 -330.6,155 -333.7,156 -8.341,2.29 -20,-0.436 -23.22,-2.17 z"
               style="fill:#75e5ee;stroke-width:0.9995"
               id="path3" />
            <path
               d="m -4315,302.4 -0.2709,-141 c -0.1806,-92 0.081,-143 0.7435,-147 3.211,-17 17.06,-30 34.11,-33 4.626,-0.73 8.338,-0.72 12.04,0.039 4.214,0.77 54.28,23 176.6,79 94.42,43 176.6,75.9 180.6,77.9 6.833,3.2 20.07,14 20.07,17 0,0.88 -1.344,7.53 -4.565,10.6 -6.933,6.7 6.462,-0.148 -199.7,97.9 -88.4,42 -162.5,74 -165.6,75 -5.528,1.5 -17.17,-0.5443 -22.79,-2.818 -6.572,-2.12 -9.983,-3.91 -15.15,-7.8 -6.864,-4.55 -11.54,-12.43 -13.85,-18.1 -0.9884,-2.557 -1.267,-5.186 -2.319,-7.721 z"
               style="fill:#5edcee;stroke-width:1.002"
               id="path4" />
            <path
               d="m -4283,477 c -16.2,-5.4 -28.3,-17.7 -31.3,-32.4 -0.565,-2.94 -0.1466,-24.89 -0.1066,-53.39 -0.5399,-41.33 -0.1958,-46.2 0.8687,-43.97 4.74,14.7 19.93,26.67 37.03,28.57 14.1,2.06 4.44,5.99 187,-78.5 91.9,-42.2 172,-79.5 176,-82.4 11.1,-5.59 13.8,-12.7 21.9,-22.3 l 3.6,-6.19 0.965,51 c 0.966,51 -0.323,52 -2.52,55.9 -3.53,7.46 -8.78,13.7 -15.1,17.7 -5.65,3.83 -342,161 -352,164 -6.66,2.36 -19.2,2.36 -26.2,0.0707 z"
               style="fill:#26c5fd;stroke-width:0.995"
               id="path5" />
            <path
               d="m -4314,418.3 c 0.061,-20 -0.543,-23.3 0.678,-19.3 4.07,13 14.5,25.9 27.7,29.9 6.41,1.8 18.3,2.1 24.4,0.48 5.09,-1.4 349,-163 356,-167 8.24,-5.1 15.3,-14 18.3,-23 0.448,-1.4 0.712,9 0.59,23 -0.204,24 -0.346,26 -2.54,31 -3.87,9.5 -12.2,17 -25.4,24 -6.01,3 -86.5,41 -179,84 l -168,79 -9.67,0.31 c -7.33,0.24 -11.2,-0.12 -15.3,-1.5 -13.7,-7.74 -24.8,-18.8 -27.6,-31.2 -0.2976,-10.19 -0.1647,-20.8 -0.158,-29.69 z"
               style="fill:#4e9eed;stroke-width:1.01"
               id="path6" />
          </g>
        </g>
      </g>
    </g>
  </g>
</svg>
