<?xml version="1.0" encoding="UTF-8" standalone="no"?>
<svg
   version="1.1"
   viewBox="0 0 182.33648 200.05798"
   id="svg10"
   sodipodi:docname="play_pressed.svg"
   width="182.33649"
   height="200.05798"
   inkscape:version="1.3 (0e150ed6c4, 2023-07-21)"
   xmlns:inkscape="http://www.inkscape.org/namespaces/inkscape"
   xmlns:sodipodi="http://sodipodi.sourceforge.net/DTD/sodipodi-0.dtd"
   xmlns="http://www.w3.org/2000/svg"
   xmlns:svg="http://www.w3.org/2000/svg"
   xmlns:rdf="http://www.w3.org/1999/02/22-rdf-syntax-ns#"
   xmlns:cc="http://creativecommons.org/ns#"
   xmlns:dc="http://purl.org/dc/elements/1.1/">
  <defs
     id="defs10" />
  <sodipodi:namedview
     id="namedview10"
     pagecolor="#ffffff"
     bordercolor="#000000"
     borderopacity="0.25"
     inkscape:showpageshadow="2"
     inkscape:pageopacity="0.0"
     inkscape:pagecheckerboard="0"
     inkscape:deskcolor="#d1d1d1"
     inkscape:zoom="1.9553667"
     inkscape:cx="-48.328531"
     inkscape:cy="185.38722"
     inkscape:window-width="2560"
     inkscape:window-height="1395"
     inkscape:window-x="1080"
     inkscape:window-y="262"
     inkscape:window-maximized="1"
     inkscape:current-layer="g10" />
  <metadata
     id="metadata1">
    <rdf:RDF>
      <cc:Work
         rdf:about="">
        <dc:format>image/svg+xml</dc:format>
        <dc:type
           rdf:resource="http://purl.org/dc/dcmitype/StillImage" />
        <dc:title>Hololive logo</dc:title>
      </cc:Work>
    </rdf:RDF>
  </metadata>
  <title
     id="title1">Hololive logo</title>
  <desc
     id="desc1">The main Japanese branch of Hololive Production</desc>
  <g
     transform="matrix(1.3879088,0,0,1.209165,-19.579127,0.83635114)"
     id="g10">
    <path
       transform="matrix(0.306218,0,0,0.31,1776.4915,102.8344)"
       d="m -5723,101 c -16.12,-5.5 -28.24,-18 -31.35,-33 -0.5448,-2.8 -0.9694,-16 -0.9493,-28 l 0.033,-23 1.813,5.3 c 4.136,12 15.12,23 27.24,27 7.17,2.7 19.23,3.6 25.24,2 4.136,-1 323.5,-151 347.5,-164 13.12,-6.5 19.43,-15.1 23.43,-25.1 1.512,-4.2 2.404,-3.13 2.103,22.1 -0.2323,25 -0.3635,27 -2.524,31 -3.535,7.6 -8.783,14 -15.12,18 -5.658,3.9 -342.5,164 -352.5,167 -6.66,2.4 -19.23,2.4 -26.24,0.072 z"
       style="fill:#f9f9f9;stroke-width:1.001"
       id="path2" />
    <path
       d="m 23.699688,124.84649 c -4.339109,-1.4632 -7.722818,-4.588 -8.953814,-8.556 -0.618561,-1.9623 -0.618561,-2.79 -0.618561,-51.149988 0,-31.93 0.111372,-49.6 0.307749,-50.84 0.74166,-3.999 3.417393,-7.378 7.110382,-8.897 1.70196,-0.7998 2.56672,-0.9858 4.64839,-1.1129 1.48332,-0.06758 3.077491,0.03937 3.72361,0.24955 1.144643,0.3348 105.247126,47.43 108.952366,48.98 4.64839,2.3808 7.4166,7.967 5.87938,12.865 -1.39084,4.898 -3.41739,6.448 -11.7557,10.757 -27.20441,12.927 -101.235675,48.049988 -102.184951,48.359988 -2.554164,0.7099 -6.12436,-0.13516 -7.110382,-0.6727 z"
       style="fill:#60d5e7;fill-opacity:1;stroke-width:0.307949"
       id="path3" />
    <path
       d="M 14.20693,114.43049 14.12398,70.720502 c -0.0553,-28.52 0.0248,-44.33 0.227673,-45.57 0.983266,-5.27 5.224079,-9.3 10.445096,-10.23 1.416564,-0.2263 2.553245,-0.2232 3.686864,0.01209 1.290403,0.2387 16.621513,7.13 54.078099,24.49 28.913098,13.33 54.078098,23.529 55.302968,24.149 2.09239,0.992 6.14579,4.34 6.14579,5.27 0,0.2728 -0.41155,2.3343 -1.39788,3.286 -2.12301,2.077 1.97878,-0.04588 -61.151732,30.348998 -27.069671,13.01999 -49.760425,22.93999 -50.7097,23.24999 -1.692773,0.465 -5.257763,-0.16873 -6.978709,-0.87358 -2.012464,-0.6572 -3.056974,-1.2121 -4.639202,-2.418 -2.101881,-1.4105 -3.533756,-3.8533 -4.24112,-5.611 -0.302665,-0.79267 -0.387978,-1.60766 -0.710119,-2.39351 z"
       style="fill:#58c3e8;fill-opacity:1;stroke-width:0.308719"
       id="path4" />
    <path
       d="m 24.005906,163.5944 c -4.960732,-1.674 -8.665969,-5.487 -9.584623,-10.044 -0.173014,-0.9114 -0.04489,-7.7159 -0.03264,-16.5509 -0.165327,-12.8123 -0.05996,-14.322 0.266011,-13.6307 1.451474,4.557 6.102925,8.2677 11.339253,8.8567 4.317674,0.6386 1.359608,1.8569 57.262766,-24.335 28.141427,-13.082 52.669497,-24.645 53.894367,-25.544 3.39902,-1.7329 4.22581,-3.937 6.70617,-6.913 l 1.10239,-1.9189 0.2955,15.81 c 0.2958,15.81 -0.0989,16.12 -0.77167,17.329 -1.08095,2.3126 -2.6886,4.247 -4.62389,5.487 -1.73014,1.1873 -104.726557,49.91 -107.788737,50.84 -2.039412,0.7316 -5.879386,0.7316 -8.022912,0.0219 z"
       style="fill:#26c5fd;stroke-width:0.306563"
       id="path5" />
    <path
       d="m -4314,418.3 c 0.061,-20 -0.543,-23.3 0.678,-19.3 4.07,13 14.5,25.9 27.7,29.9 6.41,1.8 18.3,2.1 24.4,0.48 5.09,-1.4 349,-163 356,-167 8.24,-5.1 15.3,-14 18.3,-23 0.448,-1.4 0.712,9 0.59,23 -0.204,24 -0.346,26 -2.54,31 -3.87,9.5 -12.2,17 -25.4,24 -6.01,3 -86.5,41 -179,84 l -168,79 -9.67,0.31 c -7.33,0.24 -11.2,-0.12 -15.3,-1.5 -13.7,-7.74 -24.8,-18.8 -27.6,-31.2 -0.2976,-10.19 -0.1647,-20.8 -0.158,-29.69 z"
       style="fill:#4e9eed;stroke-width:1.01"
       id="path6"
       transform="matrix(0.306218,0,0,0.31,1335.5376,15.7244)" />
  </g>
</svg>
