<?xml version="1.0" encoding="UTF-8" standalone="no"?>
<!-- Created with Inkscape (http://www.inkscape.org/) -->

<svg
   width="37.341923mm"
   height="37.342178mm"
   viewBox="0 0 18.670961 18.671089"
   version="1.1"
   id="svg5"
   inkscape:version="1.3 (0e150ed6c4, 2023-07-21)"
   sodipodi:docname="setting.svg"
   xmlns:inkscape="http://www.inkscape.org/namespaces/inkscape"
   xmlns:sodipodi="http://sodipodi.sourceforge.net/DTD/sodipodi-0.dtd"
   xmlns:xlink="http://www.w3.org/1999/xlink"
   xmlns="http://www.w3.org/2000/svg"
   xmlns:svg="http://www.w3.org/2000/svg">
  <sodipodi:namedview
     id="namedview7"
     pagecolor="#ffffff"
     bordercolor="#000000"
     borderopacity="0.25"
     inkscape:showpageshadow="2"
     inkscape:pageopacity="0.0"
     inkscape:pagecheckerboard="0"
     inkscape:deskcolor="#d1d1d1"
     inkscape:document-units="mm"
     showgrid="false"
     inkscape:zoom="1.829812"
     inkscape:cx="-138.53882"
     inkscape:cy="47.819119"
     inkscape:window-width="2560"
     inkscape:window-height="1395"
     inkscape:window-x="1080"
     inkscape:window-y="262"
     inkscape:window-maximized="1"
     inkscape:current-layer="layer1" />
  <defs
     id="defs2">
    <linearGradient
       id="linearGradient1"
       inkscape:collect="always">
      <stop
         style="stop-color:#1895c0;stop-opacity:1;"
         offset="0"
         id="stop1" />
      <stop
         style="stop-color:#1895c0;stop-opacity:1;"
         offset="0.60391933"
         id="stop3" />
      <stop
         style="stop-color:#1a518b;stop-opacity:1;"
         offset="1"
         id="stop2" />
    </linearGradient>
    <inkscape:path-effect
       effect="skeletal"
       id="path-effect562"
       is_visible="true"
       lpeversion="1"
       pattern="#rect275"
       copytype="repeated_stretched"
       prop_scale="1"
       scale_y_rel="false"
       spacing="0.5"
       normal_offset="0"
       tang_offset="0"
       prop_units="false"
       vertical_pattern="false"
       hide_knot="false"
       fuse_tolerance="0" />
    <inkscape:path-effect
       effect="skeletal"
       id="path-effect487"
       is_visible="true"
       lpeversion="1"
       pattern="#rect275"
       copytype="repeated_stretched"
       prop_scale="1"
       scale_y_rel="false"
       spacing="0"
       normal_offset="0"
       tang_offset="0"
       prop_units="false"
       vertical_pattern="false"
       hide_knot="false"
       fuse_tolerance="0" />
    <inkscape:path-effect
       effect="skeletal"
       id="path-effect476"
       is_visible="true"
       lpeversion="1"
       pattern="M 0,0 H 1"
       copytype="single_stretched"
       prop_scale="1"
       scale_y_rel="false"
       spacing="0"
       normal_offset="0"
       tang_offset="0"
       prop_units="false"
       vertical_pattern="false"
       hide_knot="false"
       fuse_tolerance="0" />
    <radialGradient
       inkscape:collect="always"
       xlink:href="#linearGradient1"
       id="radialGradient2"
       cx="92.372902"
       cy="109.85551"
       fx="92.372902"
       fy="109.85551"
       r="9.3428069"
       gradientTransform="matrix(1.0392053,0,0,1.0392122,-3.6215017,-4.3076773)"
       gradientUnits="userSpaceOnUse" />
  </defs>
  <g
     inkscape:label="Layer 1"
     inkscape:groupmode="layer"
     id="layer1"
     transform="translate(-83.037422,-100.51996)">
    <ellipse
       style="fill:url(#radialGradient2);stroke:#102c5f;stroke-width:0.519602;stroke-linecap:round;stroke-dasharray:none;stroke-opacity:1"
       id="path1"
       cx="92.372902"
       cy="109.85551"
       rx="9.0756779"
       ry="9.0757427" />
    <path
       id="rect275"
       style="fill:#ffffff;stroke-width:0.264583"
       d="m 27.39927,130.75028 c -0.620095,-0.001 -1.058013,0.36406 -1.184484,0.82145 -0.615054,2.22423 -1.118777,4.47662 -1.513339,6.75236 -0.231758,-0.0136 -0.463717,-0.0227 -0.69577,-0.0274 -0.77057,0.005 -1.540209,0.0591 -2.305024,0.16138 -0.649311,-2.2047 -1.424025,-4.37332 -2.324817,-6.49737 -0.209419,-0.49381 -0.77009,-0.84906 -1.511816,-0.652 -3.928069,1.04405 -7.54622,2.96116 -10.6542686,5.54198 -0.5862835,0.48681 -0.6724418,1.17523 -0.4125903,1.64774 1.0903311,1.9827 2.2552152,3.91125 3.4864639,5.78244 -0.7294544,0.75705 -1.4048447,1.57333 -2.0203221,2.44176 -1.9159839,-1.12852 -3.891371,-2.1629 -5.9208988,-3.08892 -0.4716335,-0.2152 -1.1047233,-0.0837 -1.51333845,0.57776 -2.16745955,3.50859 -3.66796735,7.51248 -4.30403215,11.80373 -0.1202476,0.81126 0.2574536,1.39596 0.7505794,1.5493 2.26130542,0.70261 4.5535668,1.27029 6.8709221,1.701 -0.010513,0.21289 -0.018126,0.42594 -0.022837,0.63908 0.00438,0.76414 0.046051,1.52749 0.1248429,2.28683 -2.2438832,0.71818 -4.44813982,1.59335 -6.6044894,2.6209 -0.4658502,0.22199 -0.8010704,0.81793 -0.6150792,1.60417 0.9849464,4.16386 2.79350872,7.99757 5.2281734,11.29214 0.4592538,0.62138 1.1086997,0.71441 1.5544453,0.43896 1.8805893,-1.16204 3.7097298,-2.40367 5.4839489,-3.7167 0.6837341,0.81899 1.4243091,1.57974 2.2151991,2.27553 -1.041503,1.99563 -1.9972633,4.05028 -2.8546379,6.1617 -0.2030082,0.49996 -0.078949,1.17265 0.5450455,1.60578 3.3099134,2.29756 7.0871124,3.88814 11.1353694,4.56236 0.765325,0.12749 1.317036,-0.27451 1.461575,-0.79724 0.615122,-2.22449 1.117238,-4.47796 1.511816,-6.75398 0.23175,0.0141 0.463708,0.0238 0.69577,0.029 0.771863,-7.3e-4 1.543032,-0.0503 2.309592,-0.14847 0.648564,2.20032 1.421182,4.36447 2.32025,6.48446 0.209422,0.49381 0.771612,0.84906 1.513338,0.652 3.928066,-1.04408 7.544703,-2.96116 10.652746,-5.54197 0.58628,-0.48682 0.673964,-1.17527 0.414113,-1.64775 -1.089049,-1.98037 -2.252257,-3.90685 -3.481897,-5.77598 0.730621,-0.75796 1.407035,-1.57532 2.023367,-2.44499 1.913653,1.1268 3.884873,2.16088 5.911764,3.08569 0.471637,0.21521 1.106258,0.0837 1.514861,-0.57776 2.167463,-3.50859 3.667956,-7.51251 4.304032,-11.80373 0.120233,-0.81126 -0.258973,-1.39596 -0.752102,-1.54929 -2.256339,-0.70109 -4.543542,-1.26903 -6.855697,-1.69939 0.006,-0.21405 0.009,-0.42818 0.0091,-0.64232 -0.0044,-0.7636 -0.0461,-1.52641 -0.124843,-2.28521 2.243838,-0.71817 4.448177,-1.59337 6.604489,-2.6209 0.465848,-0.22198 0.800982,-0.81793 0.61508,-1.60417 -0.984932,-4.16383 -2.793521,-7.99753 -5.228174,-11.29213 -0.459251,-0.62139 -1.110219,-0.71442 -1.555968,-0.43897 -1.880227,1.16182 -3.707003,2.40397 -5.480904,3.7167 -0.684163,-0.81962 -1.425251,-1.58091 -2.216721,-2.27715 1.041187,-1.99513 1.997483,-4.04921 2.854638,-6.16007 0.203011,-0.49996 0.07895,-1.17266 -0.545046,-1.60579 -3.309907,-2.29755 -7.087112,-3.88811 -11.13537,-4.56236 -0.09567,-0.0159 -0.188505,-0.024 -0.27709,-0.0242 z m -3.393593,18.92405 c 5.330372,-1.3e-4 9.65176,4.5799 9.652481,10.23021 1.28e-4,5.65094 -4.321509,10.23197 -9.652481,10.23184 -5.330378,-7.6e-4 -9.651086,-4.58153 -9.650958,-10.23184 7.21e-4,-5.64968 4.321181,-10.22945 9.650958,-10.23021 z"
       transform="matrix(0.20701655,0,0,0.19529477,87.40318,78.626865)"
       sodipodi:nodetypes="sscccscssccsssccccssssccsssscccscssccsssccccscssccssssccccc" />
  </g>
</svg>
