<?xml version="1.0" encoding="UTF-8" standalone="no"?>
<svg
   width="80.997963"
   height="88.446724"
   viewBox="0 0 80.997964 88.446724"
   fill="none"
   version="1.1"
   id="svg30"
   sodipodi:docname="hololive.svg"
   inkscape:export-filename="hololive.png"
   inkscape:export-xdpi="96"
   inkscape:export-ydpi="96"
   inkscape:version="1.3.2 (091e20ef0f, 2023-11-25, custom)"
   xmlns:inkscape="http://www.inkscape.org/namespaces/inkscape"
   xmlns:sodipodi="http://sodipodi.sourceforge.net/DTD/sodipodi-0.dtd"
   xmlns="http://www.w3.org/2000/svg"
   xmlns:svg="http://www.w3.org/2000/svg">
  <defs
     id="defs30" />
  <sodipodi:namedview
     id="namedview30"
     pagecolor="#989898"
     bordercolor="#000000"
     borderopacity="0.25"
     inkscape:showpageshadow="2"
     inkscape:pageopacity="0.0"
     inkscape:pagecheckerboard="0"
     inkscape:deskcolor="#d1d1d1"
     inkscape:zoom="1.7200372"
     inkscape:cx="46.510621"
     inkscape:cy="-57.266202"
     inkscape:window-width="2560"
     inkscape:window-height="1391"
     inkscape:window-x="1080"
     inkscape:window-y="378"
     inkscape:window-maximized="1"
     inkscape:current-layer="svg30" />
  <path
     d="M 76.468156,43.342943 11.040746,13.36322 C 9.8492233,12.834909 8.5449808,12.611449 7.245523,12.712638 5.946065,12.814011 4.692215,13.236916 3.596969,13.943592 2.501723,14.650267 1.599499,15.618165 0.971573,16.760395 0.343648,17.902625 0.009762,19.183073 0,20.486435 v 59.791714 c 0,5.646072 6.468363,9.851845 11.611641,7.505426 L 76.132875,56.960607 c 6.468418,-3.247224 6.384643,-10.878403 0.335281,-13.617664 z"
     fill="#4f9fef"
     id="path12"
     style="stroke-width:1.83314;fill:#666666" />
  <path
     d="m 80.982447,36.824949 h -5.138109 v 10.276033 h 5.138109 z"
     fill="#27c7ff"
     id="path13"
     style="stroke-width:1.83314;fill:#b3b3b3" />
  <path
     d="M 76.468156,40.805429 11.040746,10.841471 C 9.84882,10.312977 8.5441009,10.089426 7.244221,10.190963 5.944342,10.292519 4.69018,10.716085 3.594806,11.423127 2.499431,12.130352 1.597284,13.099167 0.96972,14.241946 0.342155,15.384909 0.008899,16.665908 0,17.96982 v 59.786581 c 0,5.651204 6.468363,9.851845 11.611641,7.53164 L 76.132875,54.454624 c 6.468418,-3.262989 6.384643,-10.889036 0.335281,-13.649195 z"
     fill="#27c7ff"
     id="path14"
     style="stroke-width:1.83314;fill:#b3b3b3" />
  <path
     d="M 76.132875,36.348333 11.611623,67.181749 C 6.468363,69.528168 0,65.322395 0,59.676324 v 7.804044 c 0,5.646071 6.468363,9.851845 11.611622,7.505425 L 76.132875,44.152377 c 4.918131,-2.461724 6.044229,-7.458314 3.640066,-10.930831 -0.91547,1.345891 -2.171538,2.424877 -3.640066,3.126787 z"
     fill="#dffaff"
     id="path16"
     style="stroke-width:1.83314" />
  <path
     d="m 11.040746,8.478273 65.42741,29.958826 c 1.326644,0.583855 2.470523,1.515823 3.310101,2.697282 2.409296,-3.634934 1.220322,-8.432445 -3.310101,-10.501326 L 11.040746,0.67433924 c -1.1939425,-0.529389 -2.5010263,-0.752776 -3.803014,-0.649951 -1.30197,0.102824 -2.55778,0.528615 -3.653833,1.23885596 -1.096035,0.710241 -1.997712,1.68252 -2.623473,2.828893 C 0.334665,5.2385092 0.00457,6.5227891 0,7.8288281 V 15.601343 C 0.0098,14.29798 0.343648,13.017513 0.971573,11.875339 1.599499,10.733164 2.501723,9.7651557 3.596969,9.0585535 4.692215,8.351933 5.946065,7.9289176 7.245523,7.8276366 8.5449808,7.7263373 9.8492233,7.9499254 11.040746,8.478273 Z"
     fill="#77e7ef"
     id="path17"
     style="stroke-width:1.83314;fill:#f2f2f2" />
  <path
     d="M 11.611641,75.094585 76.132875,44.261168 c 1.470545,-0.706309 2.726796,-1.790795 3.640066,-3.142552 -0.840311,-1.17486 -1.981991,-2.101329 -3.304785,-2.681517 L 11.040746,8.4782913 C 9.8492233,7.9499437 8.5449808,7.7263556 7.245523,7.8276366 5.946065,7.9289359 4.692215,8.3519513 3.596969,9.0585535 2.501723,9.765174 1.599497,10.733182 0.971573,11.875357 0.343648,13.017532 0.009762,14.297998 0,15.601361 v 51.987798 c 0,5.646072 6.468363,9.851845 11.611641,7.505426 z"
     fill="#5fddef"
     id="path18"
     style="stroke-width:1.83314;fill:#ffffff" />
</svg>
